<svg width="62" height="59" viewBox="0 0 62 59" fill="none" xmlns="http://www.w3.org/2000/svg">
<g clip-path="url(#clip0_5_153)" filter="url(#filter0_d_5_153)">
<path fill-rule="evenodd" clip-rule="evenodd" d="M19.8686 0.152901C22.7478 0.0278001 23.6658 0 31 0C38.3342 0 39.2522 0.0301168 42.1289 0.152901C45.0056 0.275684 46.9693 0.708903 48.6875 1.33672C50.4866 1.97844 52.1189 2.98156 53.4689 4.2789C54.8435 5.55076 55.9038 7.08903 56.5813 8.78947C57.2489 10.4111 57.7055 12.2645 57.838 14.975C57.9705 17.6971 58 18.5635 58 25.4834C58 32.4057 57.9681 33.2721 57.838 35.9896C57.7079 38.7001 57.2489 40.5534 56.5813 42.1751C55.9038 43.8758 54.8417 45.4166 53.4689 46.6903C52.1189 47.9876 50.4866 48.9884 48.6875 49.6279C46.9693 50.258 45.0056 50.6889 42.1338 50.814C39.2522 50.9391 38.3342 50.9669 31 50.9669C23.6658 50.9669 22.7478 50.9368 19.8686 50.814C16.9968 50.6912 15.0332 50.258 13.315 49.6279C11.5132 48.9884 9.88065 47.9859 8.53109 46.6903C7.15748 45.4177 6.0945 43.8776 5.41627 42.1774C4.75109 40.5557 4.29455 38.7024 4.162 35.9919C4.02945 33.2698 4 32.4034 4 25.4834C4 18.5612 4.03191 17.6948 4.162 14.9796C4.29209 12.2645 4.75109 10.4111 5.41627 8.78947C6.0955 7.08922 7.15929 5.54917 8.53355 4.27659C9.88119 2.98041 11.5121 1.97715 13.3125 1.33672C15.0307 0.708903 16.9944 0.278001 19.8662 0.152901H19.8686ZM41.9105 4.73992C39.0632 4.61714 38.209 4.59165 31 4.59165C23.791 4.59165 22.9368 4.61714 20.0895 4.73992C17.4558 4.85344 16.0273 5.26812 15.0749 5.61794C13.8157 6.08128 12.9149 6.63033 11.9699 7.52225C11.0741 8.34479 10.3847 9.34613 9.95227 10.4528C9.58164 11.3517 9.14227 12.7 9.022 15.1858C8.89191 17.8732 8.86491 18.6794 8.86491 25.4834C8.86491 32.2875 8.89191 33.0937 9.022 35.7811C9.14227 38.2669 9.58164 39.6152 9.95227 40.514C10.3843 41.6191 11.074 42.6222 11.9699 43.4446C12.8413 44.2902 13.9041 44.9412 15.0749 45.349C16.0273 45.6988 17.4558 46.1135 20.0895 46.227C22.9368 46.3498 23.7885 46.3752 31 46.3752C38.2115 46.3752 39.0632 46.3498 41.9105 46.227C44.5442 46.1135 45.9727 45.6988 46.9251 45.349C48.1843 44.8856 49.0851 44.3366 50.0301 43.4446C50.926 42.6222 51.6157 41.6191 52.0477 40.514C52.4184 39.6152 52.8577 38.2669 52.978 35.7811C53.1081 33.0937 53.1351 32.2875 53.1351 25.4834C53.1351 18.6794 53.1081 17.8732 52.978 15.1858C52.8577 12.7 52.4184 11.3517 52.0477 10.4528C51.5568 9.26439 50.9751 8.41417 50.0301 7.52225C49.1585 6.67683 48.0976 6.02616 46.9251 5.61794C45.9727 5.26812 44.5442 4.85344 41.9105 4.73992ZM27.5514 33.3393C29.4773 34.096 31.6219 34.1981 33.6188 33.6282C35.6157 33.0583 37.3411 31.8518 38.5001 30.2147C39.6592 28.5775 40.1801 26.6114 39.9739 24.652C39.7677 22.6926 38.8472 20.8616 37.3695 19.4717C36.4276 18.5832 35.2886 17.9028 34.0346 17.4797C32.7807 17.0565 31.4429 16.901 30.1176 17.0244C28.7923 17.1477 27.5125 17.5469 26.3702 18.1932C25.228 18.8394 24.2518 19.7166 23.5119 20.7617C22.772 21.8068 22.2868 22.9937 22.0913 24.237C21.8957 25.4803 21.9946 26.749 22.381 27.9519C22.7673 29.1548 23.4314 30.2618 24.3254 31.1934C25.2194 32.125 26.3212 32.8579 27.5514 33.3393ZM21.1867 16.2214C22.4754 15.0051 24.0053 14.0402 25.6891 13.382C27.3729 12.7237 29.1775 12.3849 31 12.3849C32.8225 12.3849 34.6271 12.7237 36.3109 13.382C37.9947 14.0402 39.5246 15.0051 40.8133 16.2214C42.102 17.4377 43.1242 18.8817 43.8217 20.4708C44.5191 22.06 44.8781 23.7633 44.8781 25.4834C44.8781 27.2036 44.5191 28.9069 43.8217 30.496C43.1242 32.0852 42.102 33.5292 40.8133 34.7455C38.2106 37.202 34.6807 38.582 31 38.582C27.3193 38.582 23.7894 37.202 21.1867 34.7455C18.5841 32.2891 17.1219 28.9574 17.1219 25.4834C17.1219 22.0095 18.5841 18.6778 21.1867 16.2214ZM47.956 14.3356C48.2754 14.0513 48.531 13.7094 48.7078 13.3301C48.8847 12.9508 48.9791 12.542 48.9855 12.1276C48.9919 11.7133 48.9101 11.302 48.7451 10.9181C48.58 10.5341 48.3351 10.1853 48.0246 9.8923C47.7142 9.59931 47.3446 9.36808 46.9378 9.21231C46.531 9.05653 46.0952 8.97938 45.6563 8.98542C45.2173 8.99146 44.7841 9.08057 44.3822 9.24747C43.9804 9.41437 43.6182 9.65567 43.3169 9.95708C42.731 10.5433 42.4103 11.3219 42.4227 12.1276C42.4352 12.9334 42.7798 13.7029 43.3836 14.2727C43.9873 14.8425 44.8025 15.1678 45.6563 15.1796C46.51 15.1913 47.3349 14.8886 47.956 14.3356Z" fill="white"/>
</g>
<defs>
<filter id="filter0_d_5_153" x="0" y="0" width="62" height="58.9669" filterUnits="userSpaceOnUse" color-interpolation-filters="sRGB">
<feFlood flood-opacity="0" result="BackgroundImageFix"/>
<feColorMatrix in="SourceAlpha" type="matrix" values="0 0 0 0 0 0 0 0 0 0 0 0 0 0 0 0 0 0 127 0" result="hardAlpha"/>
<feOffset dy="4"/>
<feGaussianBlur stdDeviation="2"/>
<feComposite in2="hardAlpha" operator="out"/>
<feColorMatrix type="matrix" values="0 0 0 0 0 0 0 0 0 0 0 0 0 0 0 0 0 0 0.25 0"/>
<feBlend mode="normal" in2="BackgroundImageFix" result="effect1_dropShadow_5_153"/>
<feBlend mode="normal" in="SourceGraphic" in2="effect1_dropShadow_5_153" result="shape"/>
</filter>
<clipPath id="clip0_5_153">
<rect width="54" height="50.9669" fill="white" transform="translate(4)"/>
</clipPath>
</defs>
</svg>
